<?xml version="1.0" standalone="no"?>
<!DOCTYPE svg PUBLIC "-//W3C//DTD SVG 20010904//EN"
 "http://www.w3.org/TR/2001/REC-SVG-20010904/DTD/svg10.dtd">
<svg version="1.0" xmlns="http://www.w3.org/2000/svg"
 width="980.000000pt" height="980.000000pt" viewBox="0 0 980.000000 980.000000"
 preserveAspectRatio="xMidYMid meet">

<g transform="translate(0.000000,980.000000) scale(0.100000,-0.100000)"
fill="#000000" stroke="none">
<path d="M0 5225 l0 -4575 393 0 392 0 980 980 980 980 597 0 c329 0 598 -3
598 -7 0 -20 41 -256 55 -318 237 -1037 1031 -1875 2056 -2170 287 -83 487
-110 819 -109 211 0 280 4 400 23 533 81 1008 285 1422 612 131 103 360 333
466 467 576 726 777 1668 547 2567 -90 352 -259 707 -482 1010 l-73 99 0 2508
0 2508 -4575 0 -4575 0 0 -4575z m8490 2044 l0 -1881 -22 14 c-412 265 -878
425 -1358 467 -68 6 21 9 318 10 l412 1 0 325 0 325 -2940 0 -2940 0 0 -325 0
-325 2373 -1 c1433 -1 2332 -5 2272 -10 -555 -49 -1107 -265 -1538 -601 l-49
-38 -1529 0 -1529 0 0 -330 0 -330 1224 -2 1224 -3 -55 -90 c-205 -336 -347
-731 -403 -1122 l-12 -83 -732 0 -731 0 -912 -912 -913 -913 0 3846 c0 2115 3
3849 7 3852 3 4 1767 7 3920 7 l3913 0 0 -1881z m-1439 -2089 c534 -53 991
-262 1367 -624 362 -349 584 -784 668 -1308 23 -141 23 -475 0 -616 -42 -264
-105 -466 -212 -682 -229 -461 -580 -808 -1047 -1036 -303 -147 -608 -216
-962 -217 -362 -2 -667 69 -990 227 -489 240 -868 637 -1080 1131 -368 859
-169 1847 503 2496 259 251 550 425 890 532 157 50 310 80 512 100 79 8 254 6
351 -3z"/>
<path d="M1960 7515 l0 -325 2940 0 2940 0 0 325 0 325 -2940 0 -2940 0 0
-325z"/>
<path d="M5230 2940 l0 -330 1630 0 1630 0 0 330 0 330 -1630 0 -1630 0 0
-330z"/>
</g>
</svg>
