<?xml version="1.0" standalone="no"?>
<!DOCTYPE svg PUBLIC "-//W3C//DTD SVG 20010904//EN"
 "http://www.w3.org/TR/2001/REC-SVG-20010904/DTD/svg10.dtd">
<svg version="1.0" xmlns="http://www.w3.org/2000/svg"
 width="225.000000pt" height="225.000000pt" viewBox="0 0 225.000000 225.000000"
 preserveAspectRatio="xMidYMid meet">

<g transform="translate(0.000000,225.000000) scale(0.100000,-0.100000)"
fill="#000000" stroke="none">
<path d="M960 2165 c-339 -54 -629 -269 -780 -580 -168 -345 -138 -744 81
-1060 216 -312 601 -490 971 -447 138 16 232 43 353 102 516 249 736 868 495
1387 -98 210 -279 397 -487 502 -188 94 -419 129 -633 96z m402 -84 c359 -94
625 -360 719 -719 31 -119 36 -293 10 -419 -137 -694 -923 -1025 -1511 -637
-199 131 -345 336 -412 582 -31 111 -31 363 0 474 100 364 368 631 720 718
113 28 125 29 267 25 89 -2 154 -10 207 -24z"/>
<path d="M543 1153 c-18 -7 -16 -50 3 -57 20 -8 1138 -8 1158 0 21 8 21 50 0
58 -19 7 -1143 7 -1161 -1z"/>
</g>
</svg>
