<?xml version="1.0" standalone="no"?>
<!DOCTYPE svg PUBLIC "-//W3C//DTD SVG 20010904//EN"
 "http://www.w3.org/TR/2001/REC-SVG-20010904/DTD/svg10.dtd">
<svg version="1.0" xmlns="http://www.w3.org/2000/svg"
 width="512.000000pt" height="512.000000pt" viewBox="0 0 512.000000 512.000000"
 preserveAspectRatio="xMidYMid meet">

<g transform="translate(0.000000,512.000000) scale(0.100000,-0.100000)"
fill="#000000" stroke="none">
<path d="M2013 3973 c-186 -125 -705 -474 -1153 -775 -516 -347 -823 -559
-837 -579 -29 -40 -29 -77 0 -118 14 -20 299 -218 782 -542 418 -281 937 -630
1152 -775 409 -275 418 -280 478 -252 55 25 55 28 55 523 l0 455 148 0 c548 0
1039 -67 1358 -185 405 -150 724 -400 886 -692 47 -86 77 -113 127 -113 70 0
111 53 111 143 0 87 -19 253 -41 367 -46 234 -158 493 -297 690 -86 123 -327
365 -459 463 -435 321 -1031 556 -1683 661 l-135 22 -5 430 c-5 469 -5 465
-66 492 -58 27 -71 20 -421 -215z"/>
</g>
</svg>
