<?xml version="1.0" standalone="no"?>
<!DOCTYPE svg PUBLIC "-//W3C//DTD SVG 20010904//EN"
 "http://www.w3.org/TR/2001/REC-SVG-20010904/DTD/svg10.dtd">
<svg version="1.0" xmlns="http://www.w3.org/2000/svg"
 width="512.000000pt" height="512.000000pt" viewBox="0 0 512.000000 512.000000"
 preserveAspectRatio="xMidYMid meet">

<g transform="translate(0.000000,512.000000) scale(0.100000,-0.100000)"
fill="#000000" stroke="none">
<path d="M2480 5104 c-45 -20 -87 -60 -111 -107 -19 -35 -20 -57 -17 -316 l3
-278 27 -39 c15 -21 44 -50 65 -64 31 -21 48 -25 113 -25 65 0 82 4 113 25 21
14 50 43 65 64 l27 39 3 278 c3 259 2 281 -17 316 -53 103 -172 150 -271 107z"/>
<path d="M832 4419 c-19 -6 -53 -30 -77 -53 -67 -67 -82 -152 -44 -236 26 -58
336 -372 395 -400 80 -39 194 -20 250 42 59 64 73 162 36 240 -30 61 -342 370
-402 397 -48 22 -104 25 -158 10z"/>
<path d="M4130 4409 c-54 -24 -358 -321 -397 -388 -48 -79 -30 -194 39 -258
55 -51 162 -68 235 -38 54 23 367 336 398 399 43 86 28 174 -41 243 -65 64
-150 80 -234 42z"/>
<path d="M2420 3833 c-187 -20 -408 -101 -565 -206 -83 -56 -108 -77 -203
-170 -172 -170 -294 -396 -348 -647 -26 -119 -26 -381 0 -500 110 -512 494
-896 1006 -1006 119 -26 381 -26 500 0 447 96 802 403 955 826 134 371 80 810
-138 1135 -123 183 -303 343 -495 439 -207 104 -481 154 -712 129z"/>
<path d="M125 2754 c-165 -88 -166 -301 -2 -385 35 -19 57 -20 316 -17 277 3
278 3 314 28 21 14 50 43 65 64 24 35 27 49 27 116 0 65 -4 82 -25 113 -14 21
-43 50 -64 65 l-39 27 -281 2 c-242 2 -285 0 -311 -13z"/>
<path d="M4379 2747 c-24 -13 -57 -43 -74 -66 -27 -39 -30 -50 -30 -120 0 -68
3 -82 27 -117 15 -21 44 -50 65 -64 36 -25 38 -25 302 -28 293 -4 320 0 378
51 114 100 90 277 -49 348 -34 17 -61 19 -306 19 -262 0 -270 -1 -313 -23z"/>
<path d="M1110 1395 c-49 -22 -385 -360 -405 -407 -76 -183 114 -361 291 -273
71 35 386 354 404 409 31 95 -5 201 -86 256 -47 31 -150 39 -204 15z"/>
<path d="M3835 1396 c-40 -17 -95 -72 -111 -113 -18 -43 -18 -125 1 -170 23
-54 336 -367 399 -398 153 -76 318 38 304 209 -3 38 -13 67 -32 94 -45 65
-350 361 -389 377 -44 18 -131 19 -172 1z"/>
<path d="M2460 828 c-25 -14 -58 -44 -75 -67 l-30 -43 -3 -278 c-3 -260 -2
-282 17 -317 71 -140 247 -165 348 -50 51 58 55 85 51 378 l-3 266 -27 39
c-44 62 -90 88 -167 92 -55 3 -74 -1 -111 -20z"/>
</g>
</svg>
