<svg version="1.1" xmlns="http://www.w3.org/2000/svg" xmlns:xlink="http://www.w3.org/1999/xlink" width="224.000000pt" height="225.000000pt" viewBox="0,0,254.85938,256"><g fill="#ffffff" fill-rule="nonzero" stroke="none" stroke-width="1" stroke-linecap="butt" stroke-linejoin="miter" stroke-miterlimit="10" stroke-dasharray="" stroke-dashoffset="0" font-family="none" font-weight="none" font-size="none" text-anchor="none" style="mix-blend-mode: normal"><g transform="translate(0.00692,0.19007) scale(1.13778,1.13778)"><g transform="translate(0,225) scale(0.1,-0.1)"><path d="M1680,2240c-55,-10 -143,-44 -184,-72c-17,-11 -91,-80 -163,-152c-143,-141 -152,-158 -108,-201c42,-43 48,-40 229,133c139,133 186,157 306,156c62,-1 97,-7 130,-21c67,-30 145,-105 177,-171c25,-51 28,-68 28,-152c-1,-150 4,-142 -389,-536c-394,-395 -387,-389 -536,-389c-105,0 -140,12 -234,80c-57,42 -69,43 -101,10c-37,-37 -32,-66 21,-115c97,-89 264,-137 396,-112c35,6 95,27 133,46c63,31 103,68 421,388c193,194 359,368 369,387c30,59 54,141 61,205c24,239 -163,476 -406,515c-72,12 -85,12 -150,1z"></path><path d="M981,1549c-29,-5 -83,-23 -120,-40c-59,-28 -102,-67 -399,-363c-183,-182 -349,-352 -368,-377c-44,-60 -82,-161 -90,-241c-24,-235 149,-464 388,-514c109,-23 244,0 340,59c59,35 297,266 304,294c14,56 -45,109 -90,79c-11,-7 -78,-68 -147,-133c-158,-150 -192,-168 -314,-168c-72,0 -100,4 -137,22c-66,30 -143,105 -175,172c-24,49 -28,68 -28,146c0,151 0,152 387,540c368,369 385,382 513,393c88,7 151,-11 235,-69c40,-27 77,-49 82,-49c14,0 52,21 60,34c45,67 -116,193 -277,216c-80,11 -90,11 -164,-1z"></path></g></g></g></svg>