<?xml version="1.0" standalone="no"?>
<!DOCTYPE svg PUBLIC "-//W3C//DTD SVG 20010904//EN"
 "http://www.w3.org/TR/2001/REC-SVG-20010904/DTD/svg10.dtd">
<svg version="1.0" xmlns="http://www.w3.org/2000/svg"
 width="1200.000000pt" height="1200.000000pt" viewBox="0 0 1200.000000 1200.000000"
 preserveAspectRatio="xMidYMid meet">

<g transform="translate(0.000000,1200.000000) scale(0.100000,-0.100000)"
fill="#000000" stroke="none">
<path d="M3508 10552 l-2516 -1397 156 -7 c87 -5 1219 -24 2517 -44 1730 -26
2363 -39 2372 -47 30 -31 2827 -4216 2834 -4242 33 -119 63 -483 54 -640 -38
-629 -328 -1018 -845 -1133 -69 -16 -267 -17 -2570 -17 l-2495 0 -3 1953 -2
1952 815 0 815 0 0 -1165 0 -1165 1256 0 c1001 0 1254 3 1248 13 -4 6 -430
645 -946 1420 l-938 1407 -2145 0 -2145 0 0 -2187 0 -2188 2548 -1505 c1401
-827 2554 -1504 2562 -1504 9 0 1110 688 2448 1529 l2432 1529 0 3025 -1 3026
-2456 1390 c-1351 765 -2461 1391 -2467 1392 -6 1 -1143 -627 -2528 -1395z"/>
</g>
</svg>
